<svg width="24" height="24" viewBox="0 0 24 24" fill="none" xmlns="http://www.w3.org/2000/svg">
<path d="M0.638559 21.2409C0.0527722 21.8266 0.0527722 22.7764 0.638559 23.3622C1.22435 23.948 2.17409 23.948 2.75988 23.3622L0.638559 21.2409ZM23.1992 2.30151C23.1992 1.47309 22.5276 0.801513 21.6992 0.801513L8.19922 0.801512C7.37079 0.801512 6.69922 1.47309 6.69922 2.30151C6.69922 3.12994 7.37079 3.80151 8.19922 3.80151H20.1992V15.8015C20.1992 16.6299 20.8708 17.3015 21.6992 17.3015C22.5276 17.3015 23.1992 16.6299 23.1992 15.8015L23.1992 2.30151ZM2.75988 23.3622L22.7599 3.36217L20.6386 1.24085L0.638559 21.2409L2.75988 23.3622Z" fill="#3B3A32"/>
</svg>
