<svg width="348" height="335" viewBox="0 0 348 335" fill="none" xmlns="http://www.w3.org/2000/svg">
<path d="M243.742 0C229.126 0.150833 215.628 8.48828 211.139 21.8523L214.762 31.2717C215.87 34.1437 214.423 37.3604 211.533 38.4611C208.643 39.5622 205.407 38.1245 204.299 35.2528L200.589 25.6155C198.168 19.4183 189.186 19.6481 184.895 20.7864C181.197 21.7718 177.769 24.982 175.012 30.1188C172.256 35.2561 170.413 42.061 169.803 48.6206C169.61 50.5234 168.449 52.1947 166.728 53.0477C152.436 61.4759 146.629 79.5103 147.171 97.5025C147.685 114.579 154.792 130.609 161.737 135.768H167.899C171.275 129.557 174.723 123.398 178.197 117.256L171.784 93.5869C171.012 90.627 172.785 87.6027 175.757 86.8107C176.192 86.6766 176.641 86.6209 177.092 86.6209C179.667 86.5539 181.952 88.2517 182.63 90.7217L186.077 103.524C190.988 95.0152 195.918 86.529 200.874 78.072L194.493 54.5007C193.694 51.5268 195.473 48.4724 198.466 47.6811C198.905 47.547 199.357 47.4918 199.812 47.4918C202.392 47.4415 204.674 49.1457 205.339 51.6249L208.808 64.5145C212.936 57.4474 217.045 50.3732 221.099 43.2826C222.625 40.5996 226.053 39.6583 228.749 41.1836C231.455 42.702 232.402 46.1166 230.861 48.7976C226.805 55.8922 222.709 62.9543 218.592 69.9972L231.397 66.593C234.389 65.7969 237.463 67.5683 238.259 70.5414C239.059 73.5151 237.28 76.5697 234.286 77.3611L210.57 83.6698C205.586 92.1646 200.624 100.659 195.708 109.166L208.688 105.696C211.677 104.9 214.749 106.665 215.55 109.634C216.357 112.611 214.576 115.673 211.577 116.465L187.916 122.751C185.462 127.085 183.028 131.425 180.627 135.782H220.179C226.626 133.839 235.285 128.217 241.4 121.478C247.739 114.494 250.924 106.775 249.63 101.584C249.072 99.3114 250.004 96.9346 251.961 95.6347C257.347 91.8265 262.316 86.8087 265.389 81.8859C268.477 76.9629 269.484 72.4418 268.497 68.7789C267.346 64.5082 264.082 56.3183 256.448 57.6948L246.16 59.3155C243.098 59.7982 240.224 57.715 239.747 54.6711C239.262 51.6272 241.357 48.7708 244.42 48.2968L254.369 46.7518C265.664 34.1855 264.266 14.1557 252.202 0.860772C249.38 0.26582 246.539 -0.0268148 243.742 0ZM136.336 20.993C125.34 21.1271 114.373 23.377 104.073 27.7692C85.2386 35.8006 69.4407 51.5746 60.4382 69.8857L84.5701 83.7322C89.5458 71.5121 98.6847 61.3074 110.486 55.0275C123.298 48.2092 138.228 46.5647 152.194 50.3068C154.235 48.2842 156.469 46.4103 158.957 44.7591C159.849 38.0843 161.719 31.3884 164.747 25.5178C155.539 22.3782 145.938 20.8747 136.336 20.993ZM137.507 58.5734C129.841 58.5568 122.208 60.4131 115.323 64.0772C105.216 69.4559 97.5293 78.3108 93.599 88.9204L137.901 114.34C136.778 109.046 136.134 103.47 135.964 97.8288C135.565 84.5713 138.182 70.5393 145.157 59.2148C142.621 58.7891 140.062 58.5801 137.507 58.5734ZM25.5484 62.7499C22.0155 64.9043 19.1374 68.1483 17.581 72.4634C11.7865 88.532 7.6093 111.715 18.566 135.768H60.5148C51.7111 125.24 47.8704 114.349 47.2396 104.442C46.5809 94.0951 49.1986 85.0155 52.3724 78.141L25.5484 62.7499ZM283.228 62.9612L278.347 63.2113C281.297 71.5178 278.741 81.5117 274.867 87.8371C272.914 90.952 270.531 93.8874 267.884 96.5932C274.448 98.6096 280.433 102.095 285.898 106.6C296.826 104.455 309.363 106.29 318.84 112.256C320.695 113.424 322.434 114.728 324.061 116.15C327.973 102.737 324.877 88.1535 315.579 77.4383C307.486 68.112 295.409 63.017 283.228 62.9612ZM62.1455 83.7583C59.8036 89.198 57.9648 96.1851 58.4464 103.75C59.0673 113.501 63.2594 124.479 76.0774 135.773H146.481C145.338 134.078 144.284 132.27 143.329 130.355L62.1455 83.7583ZM258.429 105.958C258.011 114.213 255.637 122.429 249.717 128.953C247.505 131.39 245.099 133.68 242.571 135.773H288.514C285.234 120.51 273.938 107.694 258.429 105.958ZM85.6754 106.253C86.6595 106.255 87.6258 106.514 88.4771 107.004C89.7603 107.745 90.6952 108.962 91.0768 110.388C91.4585 111.813 91.2556 113.33 90.5127 114.607L87.4922 119.872C87.1257 120.508 86.6367 121.065 86.0531 121.513C85.4695 121.96 84.8027 122.289 84.0911 122.48C83.3794 122.671 82.6368 122.721 81.9058 122.626C81.1749 122.531 80.4699 122.294 79.8313 121.928C79.1917 121.564 78.6307 121.078 78.1804 120.498C77.7301 119.918 77.3995 119.255 77.2073 118.548C77.0152 117.84 76.9653 117.103 77.0607 116.376C77.156 115.65 77.3946 114.949 77.7628 114.314L80.8272 109.061C81.3158 108.211 82.0213 107.504 82.8725 107.011C83.7236 106.518 84.6904 106.256 85.6754 106.253ZM294.916 117.305C298.329 122.802 300.668 129.011 301.658 135.611L322.189 135.477C319.728 130.354 317.761 124.76 312.843 121.663C308.24 118.765 301.371 117.307 294.916 117.305ZM106.327 118.132C107.307 118.135 108.269 118.394 109.118 118.882C109.756 119.246 110.316 119.731 110.765 120.311C111.214 120.89 111.544 121.551 111.736 122.257C111.928 122.963 111.979 123.701 111.884 124.426C111.79 125.151 111.553 125.851 111.186 126.485L108.133 131.75C107.385 133.026 106.158 133.955 104.722 134.333C103.285 134.71 101.756 134.505 100.472 133.762C99.8337 133.398 99.2741 132.912 98.8248 132.333C98.3755 131.754 98.0453 131.092 97.8533 130.386C97.6612 129.68 97.6109 128.943 97.7053 128.218C97.7997 127.492 98.0369 126.793 98.4034 126.159L101.468 120.894C101.963 120.05 102.673 119.351 103.525 118.866C104.378 118.381 105.344 118.129 106.327 118.132ZM0.617606 146.913C-0.0793471 149.288 -0.223676 151.852 0.376661 154.44L3.07985 166.111H125.173C125.909 166.114 126.638 166.262 127.318 166.545C127.997 166.828 128.614 167.241 129.132 167.762C129.651 168.282 130.061 168.899 130.339 169.577C130.617 170.255 130.758 170.981 130.754 171.713C130.748 173.183 130.158 174.59 129.113 175.629C128.067 176.668 126.651 177.255 125.173 177.26H5.67361L30.1119 282.583C33.1017 295.46 44.7448 304.653 58.0413 304.653H289.958C303.255 304.653 314.854 295.46 317.844 282.583L342.315 177.26H155.696C154.96 177.263 154.231 177.122 153.55 176.845C152.869 176.568 152.25 176.16 151.727 175.645C151.205 175.129 150.79 174.517 150.505 173.843C150.221 173.168 150.073 172.444 150.071 171.713C150.066 170.977 150.209 170.248 150.49 169.567C150.771 168.886 151.185 168.267 151.708 167.746C152.231 167.225 152.853 166.813 153.537 166.532C154.222 166.251 154.955 166.108 155.696 166.111H344.909L347.623 154.44C348.224 151.852 348.079 149.288 347.382 146.913H0.617606ZM39.71 190.367H45.8388C46.5746 190.37 47.3027 190.517 47.9815 190.799C48.6602 191.082 49.2764 191.495 49.7947 192.014C50.313 192.533 50.7233 193.149 51.0022 193.826C51.2811 194.502 51.4232 195.227 51.4203 195.958C51.4174 197.43 50.8287 198.84 49.7829 199.882C48.7371 200.923 47.3192 201.511 45.8388 201.516H39.71C38.2296 201.511 36.8117 200.923 35.7659 199.882C34.7201 198.84 34.1315 197.43 34.1286 195.958C34.1256 195.227 34.2677 194.502 34.5466 193.826C34.8256 193.149 35.2359 192.533 35.7542 192.014C36.2725 191.495 36.8886 191.082 37.5673 190.799C38.2461 190.517 38.9742 190.37 39.71 190.367ZM70.2442 190.367H76.3182C77.0577 190.364 77.7905 190.507 78.4743 190.787C79.1581 191.067 79.7794 191.479 80.3024 191.999C80.8253 192.519 81.2396 193.136 81.5212 193.815C81.8029 194.495 81.9464 195.223 81.9435 195.958C81.942 196.691 81.7953 197.415 81.5117 198.091C81.228 198.767 80.8131 199.381 80.2906 199.897C79.7681 200.413 79.1483 200.822 78.4666 201.1C77.785 201.378 77.0549 201.519 76.3182 201.516H70.2442C69.5074 201.519 68.7773 201.378 68.0957 201.1C67.4141 200.822 66.7942 200.413 66.2717 199.897C65.7492 199.381 65.3343 198.767 65.0507 198.091C64.7671 197.415 64.6203 196.691 64.6189 195.958C64.616 195.223 64.7595 194.495 65.0411 193.815C65.3228 193.136 65.737 192.519 66.26 191.999C66.7829 191.479 67.4042 191.067 68.088 190.787C68.7718 190.507 69.5046 190.364 70.2442 190.367ZM100.767 190.367H106.852C107.592 190.364 108.325 190.507 109.008 190.787C109.692 191.067 110.314 191.479 110.837 191.999C111.359 192.519 111.774 193.136 112.055 193.815C112.337 194.495 112.481 195.223 112.478 195.958C112.476 196.691 112.329 197.415 112.046 198.091C111.762 198.767 111.347 199.381 110.825 199.897C110.302 200.413 109.682 200.822 109.001 201.1C108.319 201.378 107.589 201.519 106.852 201.516H100.767C100.031 201.519 99.3005 201.378 98.6189 201.1C97.9373 200.822 97.3175 200.413 96.795 199.897C96.2725 199.381 95.8575 198.767 95.5739 198.091C95.2903 197.415 95.1435 196.691 95.1421 195.958C95.1392 195.223 95.2827 194.495 95.5643 193.815C95.846 193.136 96.2602 192.519 96.7832 191.999C97.3061 191.479 97.9274 191.067 98.6112 190.787C99.295 190.507 100.028 190.364 100.767 190.367ZM58.0415 269.259H161.781C162.518 269.256 163.248 269.398 163.929 269.676C164.611 269.954 165.231 270.363 165.753 270.879C166.276 271.395 166.691 272.008 166.974 272.684C167.258 273.36 167.405 274.085 167.406 274.818C167.409 275.553 167.266 276.28 166.984 276.96C166.702 277.64 166.288 278.257 165.765 278.777C165.242 279.297 164.621 279.708 163.937 279.988C163.253 280.268 162.52 280.411 161.781 280.408H58.0415C57.302 280.411 56.5692 280.268 55.8854 279.988C55.2016 279.708 54.5803 279.297 54.0574 278.777C53.5345 278.257 53.1202 277.64 52.8385 276.96C52.5569 276.28 52.4133 275.553 52.4162 274.818C52.4176 274.085 52.5644 273.36 52.848 272.684C53.1316 272.008 53.5465 271.395 54.069 270.879C54.5915 270.363 55.2113 269.954 55.893 269.676C56.5746 269.398 57.3047 269.256 58.0415 269.259ZM55.5572 315.922C53.1889 325.337 60.314 335 70.2442 335H277.767C287.697 335 294.811 325.337 292.443 315.922H55.5572Z" fill="white"/>
</svg>
