<svg width="22" height="20" viewBox="0 0 22 20" fill="none" xmlns="http://www.w3.org/2000/svg">
<path d="M21.9863 16.7884C21.9588 16.6719 21.8711 16.4991 21.792 16.4117C21.6683 16.2739 17.0165 12.2965 16.8962 12.2247C16.5678 12.0306 16.1846 12.0696 15.9027 12.3279C15.8615 12.3648 15.5367 12.8075 15.1794 13.3105C14.5075 14.2581 14.4783 14.2931 14.2841 14.3882C14.0882 14.4854 13.8046 14.5165 13.5451 14.4699C13.2511 14.4156 12.8592 14.2507 12.4381 14.0042C11.876 13.6742 11.8021 13.6141 9.72888 11.8263L7.75711 10.1298L7.34967 9.69298C6.54683 8.83496 6.14625 8.29528 5.97256 7.83904C5.90721 7.67014 5.90549 7.65849 5.90544 7.44103C5.90539 7.20221 5.92943 7.10707 6.02565 6.96337C6.04799 6.93036 6.42604 6.57302 6.86423 6.17296C7.30243 5.7729 7.6822 5.41556 7.70969 5.38061C7.94681 5.06407 7.91405 4.5845 7.63899 4.29332C7.541 4.19044 2.91328 0.222791 2.80326 0.147092C2.48353 -0.0702993 2.03322 -0.0255464 1.75828 0.254103C1.69814 0.314306 0.656913 1.88917 0.4473 2.23676C0.117417 2.78436 -0.0508139 3.75326 0.018142 4.71822C0.214659 7.43448 1.98907 10.5115 5.10752 13.5359C7.50224 15.8595 10.1409 17.7617 12.4649 18.8407C13.9311 19.5219 15.2615 19.8905 16.5901 19.9834C17.9394 20.0783 19.2971 19.7635 20.0911 19.1711C20.2217 19.074 21.7631 17.5767 21.8421 17.4699C21.9315 17.3514 21.9899 17.1786 21.9967 17.0136C22.0001 16.932 21.9949 16.8311 21.9863 16.7884Z" fill="#3B3A32"/>
</svg>
